<?xml version="1.0" standalone="no"?>
<!DOCTYPE svg PUBLIC "-//W3C//DTD SVG 20010904//EN"
 "http://www.w3.org/TR/2001/REC-SVG-20010904/DTD/svg10.dtd">
<svg version="1.0" xmlns="http://www.w3.org/2000/svg"
 width="479.000000pt" height="479.000000pt" viewBox="0 0 479.000000 479.000000"
 preserveAspectRatio="xMidYMid meet">
<metadata>
Created by potrace 1.11, written by Peter Selinger 2001-2013
</metadata>
<g transform="translate(0.000000,479.000000) scale(0.100000,-0.100000)"
fill="#000000" stroke="none">
<path d="M945 4779 c-251 -21 -418 -89 -559 -226 -227 -221 -233 -579 -13
-805 120 -124 258 -198 547 -295 372 -124 465 -176 515 -285 78 -172 -8 -361
-189 -413 -78 -22 -114 -27 -206 -26 -295 0 -479 139 -493 370 l-2 41 -204 0
-203 0 6 -67 c33 -345 299 -585 726 -654 63 -10 284 -14 325 -5 11 2 43 7 70
10 277 37 507 207 576 425 24 76 33 229 19 306 -55 289 -250 453 -721 605
-313 101 -445 175 -498 279 -33 64 -31 173 6 245 71 138 294 208 514 162 182
-39 287 -156 301 -333 1 -19 8 -33 18 -35 8 -2 98 -4 200 -3 l185 0 -3 65 c-6
121 -77 287 -164 381 -137 147 -343 241 -563 255 -49 3 -94 6 -100 8 -5 1 -46
-1 -90 -5z"/>
<path d="M2219 4733 c0 -10 -1 -530 -2 -1155 l-2 -1138 204 0 204 0 -7 553
c-3 303 -8 577 -10 607 -2 30 -7 136 -10 235 -4 99 -9 221 -11 270 -3 53 -1
84 4 75 5 -8 68 -168 139 -355 71 -187 162 -423 201 -525 39 -102 128 -336
199 -520 l127 -335 147 -3 146 -3 22 58 c12 32 32 85 45 118 13 33 103 267
200 520 96 253 193 505 215 560 21 55 64 168 95 250 31 83 63 164 71 182 8 17
14 36 14 42 0 6 4 11 8 11 5 0 8 -21 6 -47 -1 -27 -5 -129 -9 -228 -4 -99 -8
-220 -10 -269 -2 -49 -7 -161 -11 -250 -5 -120 -9 -886 -5 -938 1 -5 91 -8
201 -8 l200 0 0 1155 0 1155 -262 -2 -262 -3 -323 -860 c-177 -473 -326 -868
-331 -879 -6 -14 -67 139 -241 600 -128 341 -244 648 -257 684 -13 36 -57 153
-97 260 l-74 195 -262 3 c-244 2 -261 1 -262 -15z"/>
<path d="M144 2311 c-2 -2 -4 -523 -4 -1156 l0 -1152 238 1 237 1 0 488 0 487
30 0 c16 1 262 1 546 1 l517 0 0 160 c1 87 -2 160 -6 160 -4 1 -250 2 -547 3
l-540 1 0 340 0 340 627 3 626 2 -1 163 -2 162 -858 0 c-472 0 -860 -2 -863
-4z"/>
<path d="M2219 2305 c0 -5 -1 -525 -1 -1155 l-1 -1145 539 0 c687 1 781 8
1039 87 499 151 790 458 841 888 18 143 5 386 -25 495 -130 468 -566 766
-1216 831 -109 11 -1175 10 -1176 -1z m1143 -327 c33 -4 72 -10 87 -13 14 -3
38 -7 52 -10 129 -24 280 -104 375 -199 87 -87 155 -216 179 -341 29 -151 24
-433 -11 -555 -70 -245 -240 -407 -504 -484 -144 -41 -233 -49 -540 -50 l-215
-1 -1 825 c0 454 2 829 4 833 5 11 492 6 574 -5z"/>
</g>
</svg>
